<svg width="80" height="51" viewBox="0 0 80 51" fill="none" xmlns="http://www.w3.org/2000/svg">
<g clip-path="url(#clip0_731_6630)">
<path fill-rule="evenodd" clip-rule="evenodd" d="M14.4934 10.2324L1.74848 23.1097L10.0401 31.4876C10.6228 32.0744 11.3166 32.5404 12.0813 32.8583C12.846 33.1763 13.6664 33.3401 14.4951 33.3401C15.3238 33.3401 16.1442 33.1763 16.9089 32.8583C17.6736 32.5404 18.3674 32.0744 18.9501 31.4876L27.2434 23.1122L14.4934 10.2324Z" fill="#005F27"/>
<path fill-rule="evenodd" clip-rule="evenodd" d="M39.9995 10.2307L27.2495 23.108L35.5437 31.4901C36.1273 32.0773 36.8222 32.5433 37.5879 32.8611C38.3536 33.179 39.175 33.3424 40.0046 33.3418C40.8341 33.3413 41.6554 33.1768 42.4207 32.8579C43.186 32.5391 43.8801 32.0721 44.463 31.4841L52.7496 23.108L39.9995 10.2307Z" fill="#005F27"/>
<path fill-rule="evenodd" clip-rule="evenodd" d="M65.5056 10.2307L52.7479 23.108L61.0455 31.4892C62.208 32.6587 63.7863 33.3247 65.4384 33.3429C66.2791 33.3545 67.1134 33.1959 67.8906 32.8765C68.6679 32.5571 69.3718 32.0837 69.9597 31.485L78.2488 23.108L65.5056 10.2307Z" fill="#005F27"/>
<path fill-rule="evenodd" clip-rule="evenodd" d="M52.7517 23.1037L40 10.2341L48.2959 1.85533C48.8783 1.26732 49.5722 0.80043 50.3373 0.481753C51.1023 0.163076 51.9233 -0.00102234 52.7526 -0.00102234C53.5818 -0.00102234 54.4028 0.163076 55.1679 0.481753C55.933 0.80043 56.6268 1.26732 57.2092 1.85533L65.5001 10.2307L52.7517 23.1037Z" fill="#158C30"/>
<path fill-rule="evenodd" clip-rule="evenodd" d="M27.2449 23.1037L14.4965 10.234L22.7831 1.85532C23.367 1.2668 24.0623 0.799554 24.8288 0.480655C25.5952 0.161755 26.4176 -0.00245667 27.2483 -0.00245667C28.0789 -0.00245667 28.9013 0.161755 29.6678 0.480655C30.4343 0.799554 31.1296 1.2668 31.7135 1.85532L40.0026 10.2306L27.2449 23.1037Z" fill="#158C30"/>
<path d="M47.1914 40.7303C50.9073 40.7303 52.7657 43.299 52.7657 45.8643C52.7657 48.4296 50.9192 51.0008 47.1914 51.0008C43.399 51.0008 41.5058 48.3991 41.5355 45.8092C41.561 43.2609 43.4492 40.7312 47.1914 40.7312V40.7303ZM44.9137 45.8202C44.9021 46.1236 44.9519 46.4262 45.06 46.71C45.1682 46.9938 45.3326 47.2531 45.5434 47.4723C45.7542 47.6916 46.0071 47.8664 46.2871 47.9863C46.5671 48.1062 46.8684 48.1688 47.1732 48.1703C47.478 48.1718 47.7799 48.1123 48.0611 47.9952C48.3423 47.8781 48.597 47.7059 48.81 47.4888C49.023 47.2717 49.19 47.0141 49.301 46.7314C49.4121 46.4486 49.4649 46.1466 49.4563 45.8431C49.4622 45.5423 49.4078 45.2434 49.2962 44.9638C49.1847 44.6842 49.0183 44.4296 48.8069 44.2148C48.5954 44 48.343 43.8294 48.0645 43.7129C47.7861 43.5965 47.4871 43.5365 47.185 43.5365C46.883 43.5365 46.584 43.5965 46.3056 43.7129C46.0271 43.8294 45.7747 44 45.5632 44.2148C45.3517 44.4296 45.1854 44.6842 45.0739 44.9638C44.9624 45.2434 44.9079 45.5423 44.9137 45.8431V45.8202Z" fill="#005F27"/>
<path d="M30.1738 40.9244H32.8665L33.4618 42.1317L33.5205 42.1258C33.8805 41.6622 34.3486 41.2931 34.8843 41.0507C35.4199 40.8083 36.0069 40.6998 36.5943 40.7347C38.86 40.7347 40.1664 42.1681 40.1664 44.4327V50.7519H36.8222V45.6526C36.8222 44.5038 36.6368 43.4152 35.27 43.4152C35.0192 43.4111 34.7704 43.4609 34.5406 43.5613C34.3109 43.6616 34.1056 43.8101 33.9386 43.9966C33.7717 44.1832 33.6471 44.4034 33.5733 44.6422C33.4996 44.881 33.4783 45.1329 33.5111 45.3807V50.7519H30.1686L30.1738 40.9244Z" fill="#005F27"/>
<path d="M0 50.7526L2.35422 37.5187H6.139L8.58846 43.7311L8.72455 44.4275L8.86913 43.7311L11.3186 37.5187H15.0966L17.4525 50.7526H13.8591L12.6684 42.6679L12.4668 43.4168L9.46279 50.7526H7.99056L4.98826 43.4168L4.78753 42.6679L3.59682 50.7526H0Z" fill="#005F27"/>
<path d="M77.6852 50.7544L77.0652 49.5005H76.9946C76.5947 49.9975 76.0792 50.3899 75.4929 50.644C74.9065 50.898 74.2668 51.006 73.6292 50.9586C71.758 50.9586 70.7094 49.6522 70.7094 47.824C70.7094 45.3002 73.0347 44.719 75.1074 44.6411C75.6415 44.6182 76.1747 44.6233 76.6825 44.6106C76.6825 43.8015 76.3967 43.2745 75.5096 43.2745C74.5807 43.3307 73.6732 43.5761 72.8433 43.9955L71.8848 41.7843C73.2059 41.1567 74.6592 40.8551 76.122 40.905C78.3163 40.905 80.0004 42.0707 80.0004 44.4216V50.7544H77.6852ZM76.6995 47.1962V46.4473L75.934 46.4795C74.8445 46.5261 74.0969 46.9268 74.0969 47.6943C74.0969 48.3357 74.5919 48.5873 75.1337 48.5873C75.3298 48.6059 75.5276 48.5839 75.7148 48.5228C75.9019 48.4617 76.0744 48.3628 76.2214 48.2322C76.3684 48.1016 76.4868 47.9421 76.569 47.7639C76.6513 47.5856 76.6957 47.3923 76.6995 47.1962Z" fill="#005F27"/>
<path d="M66.2776 50.9552C63.1366 50.9552 61.4211 49.0287 61.4211 45.9076C61.4211 42.701 63.3773 40.7703 66.5353 40.7703C67.6432 40.7643 68.7369 41.0201 69.7264 41.5166L68.7355 44.0252C68.3693 43.8623 67.9945 43.7192 67.6129 43.5965C67.2643 43.4867 66.9008 43.4313 66.5353 43.4321C64.267 43.4321 64.1122 48.2493 66.5608 48.2493C67.5693 48.2426 68.5539 47.9429 69.3938 47.3868V50.0826C68.4676 50.6808 67.381 50.985 66.2776 50.9552Z" fill="#005F27"/>
<path d="M60.0297 40.7728C60.3725 40.7754 60.7142 40.8106 61.0503 40.8779L60.7526 44.0785C60.3752 43.9984 59.9894 43.9634 59.6036 43.9743C59.317 43.9484 59.0281 43.9799 58.754 44.0673C58.48 44.1546 58.2263 44.2958 58.008 44.4826C57.6548 44.8861 57.4763 45.4124 57.5113 45.9466V50.7493H54.1518V40.9456H56.6464L57.1728 42.5197H57.3361C57.5941 42.0206 57.9782 41.597 58.4505 41.2907C58.9228 40.9844 59.4671 40.8059 60.0297 40.7728Z" fill="#005F27"/>
<path d="M28.795 46.4286H21.7009C21.7256 47.8027 22.3856 48.6186 23.7829 48.6186C24.1232 48.6348 24.4615 48.5581 24.7613 48.3969C25.0611 48.2356 25.3109 47.9959 25.484 47.7036H28.6445C27.9853 49.9995 26.0929 51.0009 23.8246 51.0009C20.7305 51.0009 18.2886 49.1837 18.2886 45.8974C18.2886 42.5391 20.6139 40.7295 23.8025 40.7295C27.1671 40.7295 28.7967 43.2474 28.7967 46.4277L28.795 46.4286ZM25.6592 44.4538C25.5683 44.0159 25.3273 43.6231 24.9775 43.3427C24.6278 43.0624 24.1911 42.9118 23.7421 42.917C23.283 42.8835 22.8278 43.0222 22.4659 43.3057C22.104 43.5892 21.8615 43.9972 21.786 44.4496L25.6592 44.4538Z" fill="#005F27"/>
</g>
<defs>
<clipPath id="clip0_731_6630">
<rect width="80" height="51" fill="white"/>
</clipPath>
</defs>
</svg>
